<?xml version="1.0" encoding="UTF-8" standalone="no"?>
<!DOCTYPE svg PUBLIC "-//W3C//DTD SVG 1.1//EN" "http://www.w3.org/Graphics/SVG/1.1/DTD/svg11.dtd">
<svg width="100%" height="100%" viewBox="0 0 1182 1182" version="1.1" xmlns="http://www.w3.org/2000/svg" xmlns:xlink="http://www.w3.org/1999/xlink" xml:space="preserve" xmlns:serif="http://www.serif.com/" style="fill-rule:evenodd;clip-rule:evenodd;stroke-linecap:round;stroke-linejoin:round;">
    <g transform="matrix(0.708095,0,0,0.727728,104.798051,63.312326)">
        <rect x="-148" y="-87" width="1668" height="1623" style="fill:url(#_Linear1);"/>
    </g>
    <g transform="matrix(1.363068,0,0,1.363068,-226.222735,-264.426421)">
        <g transform="matrix(31.953218,0,0,28.793375,217.562967,278.595591)">
            <path d="M4,14.899C2.72,13.591 2.003,11.832 2.003,10.003C2.003,6.163 5.163,3.003 9.003,3.003C12.088,3.003 14.827,5.043 15.71,8C15.71,8 17.5,8 17.501,8C19.969,8 22.001,10.031 22.001,12.5C22.001,14.002 21.249,15.408 20,16.242" style="fill:none;fill-rule:nonzero;stroke:white;stroke-width:2px;"/>
        </g>
        <g transform="matrix(31.953218,0,0,28.793375,217.562967,278.595591)">
            <path d="M9.2,22L12.2,15" style="fill:none;fill-rule:nonzero;stroke:white;stroke-width:2px;"/>
        </g>
        <g transform="matrix(31.953218,0,0,28.793375,217.562967,278.595591)">
            <path d="M9,13L6,20" style="fill:none;fill-rule:nonzero;stroke:white;stroke-width:2px;"/>
        </g>
        <g transform="matrix(31.953218,0,0,28.793375,217.562967,278.595591)">
            <path d="M17,13L14,20" style="fill:none;fill-rule:nonzero;stroke:white;stroke-width:2px;"/>
        </g>
    </g>
    <defs>
        <linearGradient id="_Linear1" x1="0" y1="0" x2="1" y2="0" gradientUnits="userSpaceOnUse" gradientTransform="matrix(1601.48016,1562.39718,-1605.71688,1558.27476,-122.57968,-62.26548)"><stop offset="0" style="stop-color:rgb(20,71,230);stop-opacity:1"/><stop offset="0.5" style="stop-color:rgb(43,91,237);stop-opacity:1"/><stop offset="1" style="stop-color:rgb(20,66,204);stop-opacity:1"/></linearGradient>
    </defs>
</svg>
